<svg xmlns="http://www.w3.org/2000/svg" id="canvas" viewBox="157.393 294.035 836.818 130.441"><path d="M 163.03,322.75 C 162.86 324.26, 163.32 326.20, 163.80 330.02 C 164.28 333.83, 164.76 336.46, 165.44 341.85 C 166.12 347.23, 166.62 350.91, 167.18 356.96 C 167.73 363.01, 167.95 366.33, 168.21 372.09 C 168.47 377.86, 168.47 380.91, 168.47 385.78 C 168.47 390.66, 168.23 393.16, 168.23 396.46 C 168.23 399.76, 168.27 401.01, 168.48 402.30 C 168.70 403.59, 169.11 403.79, 169.31 402.91 C 169.52 402.04, 169.86 400.91, 169.49 397.91 C 169.12 394.90, 168.31 392.52, 167.46 387.87 C 166.62 383.23, 166.03 380.17, 165.26 374.68 C 164.48 369.18, 164.10 366.03, 163.58 360.40 C 163.06 354.77, 162.79 351.81, 162.65 346.53 C 162.51 341.25, 162.55 338.65, 162.87 334.00 C 163.19 329.35, 163.52 327.13, 164.24 323.28 C 164.97 319.43, 165.56 317.63, 166.50 314.75 C 167.44 311.87, 168.01 310.56, 168.94 308.90 C 169.87 307.24, 170.16 306.65, 171.15 306.43 C 172.15 306.21, 172.50 306.57, 173.91 307.81 C 175.32 309.05, 176.15 310.21, 178.23 312.64 C 180.30 315.07, 181.62 316.83, 184.27 319.95 C 186.92 323.08, 188.43 325.09, 191.47 328.26 C 194.50 331.42, 196.18 333.16, 199.45 335.77 C 202.72 338.39, 204.50 339.65, 207.81 341.35 C 211.11 343.05, 212.76 343.75, 215.96 344.28 C 219.16 344.80, 220.83 344.75, 223.81 343.98 C 226.78 343.21, 228.30 342.26, 230.83 340.43 C 233.36 338.60, 234.47 337.10, 236.45 334.82 C 238.43 332.55, 239.33 331.06, 240.74 329.05 C 242.15 327.04, 242.60 325.85, 243.50 324.78 C 244.39 323.71, 244.46 323.27, 245.19 323.69 C 245.93 324.11, 246.04 324.90, 247.18 326.89 C 248.32 328.88, 249.22 330.36, 250.89 333.66 C 252.57 336.95, 253.61 339.10, 255.56 343.36 C 257.51 347.62, 258.62 350.28, 260.64 354.96 C 262.66 359.64, 263.67 362.30, 265.66 366.76 C 267.66 371.21, 268.65 373.41, 270.60 377.22 C 272.54 381.04, 273.55 382.90, 275.40 385.84 C 277.24 388.77, 278.07 390.10, 279.81 391.90 C 281.56 393.69, 282.46 394.16, 284.13 394.80 C 285.80 395.43, 286.60 395.51, 288.16 395.07 C 289.72 394.63, 290.58 394.14, 291.92 392.59 C 293.25 391.05, 293.84 389.77, 294.84 387.37 C 295.84 384.97, 296.16 383.39, 296.91 380.60 C 297.66 377.80, 298.02 376.08, 298.59 373.40 C 299.17 370.72, 299.36 369.08, 299.80 367.21 C 300.24 365.34, 300.29 364.60, 300.79 364.06 C 301.29 363.52, 301.44 363.76, 302.30 364.50 C 303.16 365.24, 303.63 366.04, 305.08 367.74 C 306.53 369.44, 307.60 370.69, 309.54 373.00 C 311.49 375.31, 312.70 376.87, 314.81 379.29 C 316.92 381.71, 318.14 383.10, 320.09 385.09 C 322.04 387.08, 323.04 387.95, 324.55 389.23 C 326.07 390.50, 326.64 390.87, 327.67 391.47 C 328.69 392.07, 329.04 392.15, 329.66 392.22 C 330.27 392.29, 330.38 391.99, 330.75 391.84 C 331.11 391.69, 331.18 391.55, 331.48 391.45 C 331.78 391.36, 332.04 391.29, 332.24 391.36 C 332.44 391.42, 332.44 391.65, 332.49 391.77 C 332.54 391.89, 332.57 391.95, 332.50 391.97 C 332.43 391.99, 332.14 391.98, 332.13 391.86 C 332.12 391.73, 332.41 391.65, 332.44 391.35 C 332.48 391.05, 332.67 390.70, 332.30 390.37 C 331.94 390.04, 331.02 389.96, 330.63 389.70 C 330.24 389.44, 330.42 389.27, 330.35 389.07 C 330.28 388.86, 330.44 388.73, 330.28 388.69 C 330.12 388.65, 329.77 388.72, 329.55 388.88 C 329.33 389.04, 329.23 389.20, 329.16 389.50 C 329.09 389.80, 329.06 390.13, 329.20 390.38 C 329.35 390.63, 329.66 390.65, 329.87 390.75 C 330.09 390.86, 330.15 390.92, 330.26 390.89 C 330.38 390.86, 330.62 390.94, 330.46 390.62 C 330.29 390.30, 330.11 390.08, 329.42 389.30 C 328.73 388.52, 328.25 388.12, 327.00 386.71 C 325.75 385.29, 324.96 384.25, 323.15 382.23 C 321.34 380.20, 319.98 379.03, 317.97 376.61 C 315.95 374.18, 315.02 372.48, 313.06 370.08 C 311.11 367.69, 310.09 366.25, 308.18 364.62 C 306.27 362.99, 305.26 362.42, 303.52 361.93 C 301.78 361.43, 300.93 361.36, 299.49 362.15 C 298.04 362.93, 297.34 363.82, 296.27 365.85 C 295.21 367.87, 294.94 369.58, 294.16 372.28 C 293.38 374.98, 293.12 376.67, 292.38 379.36 C 291.63 382.05, 291.16 383.51, 290.44 385.74 C 289.73 387.97, 289.44 389.12, 288.81 390.51 C 288.18 391.91, 288.02 392.32, 287.30 392.70 C 286.59 393.08, 286.25 393.01, 285.23 392.41 C 284.21 391.81, 283.65 391.33, 282.19 389.68 C 280.73 388.04, 279.81 386.91, 277.95 384.17 C 276.09 381.44, 274.90 379.69, 272.89 376.01 C 270.88 372.33, 269.87 370.16, 267.88 365.76 C 265.89 361.35, 264.89 358.69, 262.95 353.99 C 261.01 349.28, 259.96 346.60, 258.19 342.23 C 256.42 337.86, 255.67 335.63, 254.11 332.13 C 252.55 328.62, 252.02 326.85, 250.40 324.73 C 248.77 322.60, 247.72 321.94, 245.97 321.49 C 244.22 321.03, 243.32 321.44, 241.62 322.45 C 239.93 323.46, 239.14 324.58, 237.49 326.53 C 235.83 328.48, 235.13 330.02, 233.35 332.20 C 231.56 334.38, 230.65 335.75, 228.55 337.43 C 226.46 339.11, 225.29 339.86, 222.87 340.59 C 220.45 341.32, 219.19 341.45, 216.45 341.06 C 213.71 340.68, 212.20 340.18, 209.16 338.67 C 206.11 337.17, 204.34 336.03, 201.23 333.55 C 198.12 331.07, 196.48 329.39, 193.60 326.26 C 190.72 323.12, 189.33 321.11, 186.85 317.87 C 184.37 314.64, 183.40 312.66, 181.20 310.10 C 178.99 307.53, 177.95 306.22, 175.83 305.02 C 173.72 303.83, 172.52 303.68, 170.63 304.11 C 168.74 304.55, 167.82 305.28, 166.38 307.22 C 164.95 309.15, 164.39 310.66, 163.44 313.79 C 162.50 316.92, 162.23 318.83, 161.66 322.85 C 161.08 326.86, 160.81 329.12, 160.58 333.87 C 160.35 338.62, 160.34 341.25, 160.51 346.60 C 160.68 351.94, 160.97 354.92, 161.43 360.59 C 161.89 366.27, 162.25 369.43, 162.83 374.98 C 163.41 380.53, 163.77 383.62, 164.34 388.35 C 164.90 393.07, 164.91 395.59, 165.65 398.62 C 166.39 401.64, 167.12 402.67, 168.05 403.47 C 168.99 404.26, 169.68 403.98, 170.32 402.58 C 170.95 401.19, 171.13 399.87, 171.22 396.50 C 171.31 393.13, 170.95 390.64, 170.77 385.74 C 170.58 380.84, 170.58 377.79, 170.30 371.99 C 170.02 366.20, 169.86 362.86, 169.37 356.77 C 168.89 350.69, 168.46 346.99, 167.87 341.56 C 167.29 336.13, 167.08 333.45, 166.44 329.63 C 165.80 325.81, 165.34 323.84, 164.66 322.46 C 163.98 321.09, 163.21 321.24, 163.03 322.75" style="stroke: black; fill: black;"/><path d="M 306.59,336.77 C 307.17 336.91, 307.68 337.07, 307.79 336.99 C 307.89 336.91, 307.70 336.70, 307.12 336.37 C 306.54 336.03, 305.54 335.50, 304.89 335.33 C 304.23 335.15, 303.85 335.29, 303.85 335.49 C 303.85 335.68, 304.34 336.05, 304.89 336.31 C 305.44 336.57, 306.01 336.63, 306.59 336.77" style="stroke: black; fill: black;"/><path d="M 363.63,352.21 C 363.06 351.88, 362.53 351.68, 361.19 351.96 C 359.86 352.24, 358.88 352.46, 356.95 353.61 C 355.03 354.75, 353.61 355.57, 351.57 357.68 C 349.53 359.79, 348.25 361.38, 346.75 364.17 C 345.25 366.95, 344.39 368.62, 344.09 371.61 C 343.79 374.60, 343.93 376.46, 345.24 379.12 C 346.55 381.78, 347.82 383.14, 350.65 384.91 C 353.47 386.68, 355.56 387.30, 359.36 387.95 C 363.16 388.60, 365.50 388.67, 369.66 388.15 C 373.81 387.63, 376.18 387.03, 380.15 385.36 C 384.12 383.69, 386.15 382.56, 389.52 379.81 C 392.89 377.06, 394.45 375.36, 397.01 371.59 C 399.57 367.83, 400.74 365.53, 402.32 360.99 C 403.89 356.45, 404.38 353.79, 404.89 348.89 C 405.40 343.99, 405.26 341.22, 404.85 336.50 C 404.44 331.77, 403.90 329.32, 402.84 325.26 C 401.77 321.19, 400.99 319.14, 399.54 316.18 C 398.08 313.22, 397.15 311.97, 395.55 310.45 C 393.96 308.93, 393.01 308.51, 391.55 308.59 C 390.10 308.68, 389.12 309.11, 388.26 310.85 C 387.40 312.59, 387.11 314.11, 387.25 317.31 C 387.40 320.50, 388.04 322.61, 389.00 326.83 C 389.95 331.05, 390.56 333.75, 392.01 338.40 C 393.46 343.06, 394.46 345.72, 396.25 350.11 C 398.03 354.50, 399.06 356.72, 400.92 360.36 C 402.79 364.00, 403.66 365.75, 405.59 368.32 C 407.52 370.89, 408.55 371.89, 410.57 373.22 C 412.58 374.55, 413.65 374.86, 415.67 374.97 C 417.69 375.07, 418.77 374.70, 420.65 373.73 C 422.54 372.77, 423.42 371.73, 425.10 370.15 C 426.77 368.57, 427.53 367.40, 429.01 365.82 C 430.50 364.25, 431.24 363.31, 432.53 362.28 C 433.82 361.24, 434.30 360.79, 435.47 360.67 C 436.64 360.55, 437.08 360.82, 438.38 361.66 C 439.68 362.49, 440.33 363.37, 441.99 364.83 C 443.65 366.29, 444.64 367.31, 446.67 368.96 C 448.70 370.61, 449.81 371.64, 452.13 373.09 C 454.45 374.55, 455.81 375.28, 458.26 376.24 C 460.71 377.19, 461.98 377.60, 464.39 377.86 C 466.79 378.12, 468.07 378.09, 470.30 377.54 C 472.53 377.00, 473.73 376.51, 475.53 375.13 C 477.34 373.75, 478.23 372.67, 479.32 370.62 C 480.41 368.58, 480.81 367.20, 480.99 364.92 C 481.17 362.65, 480.99 361.27, 480.23 359.24 C 479.47 357.22, 478.71 356.11, 477.19 354.80 C 475.68 353.49, 474.52 352.95, 472.66 352.69 C 470.80 352.43, 469.51 352.61, 467.89 353.49 C 466.27 354.38, 465.30 355.31, 464.57 357.12 C 463.85 358.92, 463.72 360.26, 464.25 362.51 C 464.79 364.75, 465.44 366.15, 467.26 368.35 C 469.07 370.54, 470.43 371.73, 473.34 373.48 C 476.26 375.24, 478.19 376.10, 481.83 377.13 C 485.47 378.16, 487.59 378.52, 491.54 378.62 C 495.50 378.73, 497.67 378.62, 501.60 377.65 C 505.52 376.67, 507.62 375.90, 511.17 373.74 C 514.71 371.58, 516.46 370.16, 519.31 366.86 C 522.16 363.57, 523.45 361.53, 525.40 357.26 C 527.36 353.00, 528.20 350.38, 529.07 345.53 C 529.95 340.69, 530.04 337.91, 529.77 333.02 C 529.50 328.14, 528.90 325.53, 527.71 321.11 C 526.52 316.68, 525.54 314.45, 523.82 310.90 C 522.09 307.35, 521.10 305.59, 519.09 303.36 C 517.08 301.12, 515.74 300.25, 513.76 299.71 C 511.79 299.17, 510.55 299.31, 509.22 300.64 C 507.88 301.97, 507.09 303.33, 507.09 306.36 C 507.10 309.40, 507.85 311.46, 509.25 315.80 C 510.65 320.15, 511.74 322.96, 514.11 328.07 C 516.48 333.18, 517.99 336.05, 521.10 341.35 C 524.20 346.65, 526.03 349.54, 529.63 354.57 C 533.22 359.60, 535.53 362.25, 539.07 366.50 C 542.60 370.75, 544.44 372.89, 547.30 375.83 C 550.16 378.77, 551.98 380.33, 553.38 381.21 C 554.79 382.09, 555.23 381.61, 554.33 380.24 C 553.43 378.86, 551.62 377.35, 548.89 374.33 C 546.16 371.31, 544.22 369.32, 540.69 365.14 C 537.15 360.96, 534.79 358.39, 531.23 353.43 C 527.67 348.46, 525.86 345.59, 522.88 340.32 C 519.90 335.06, 518.45 332.16, 516.32 327.09 C 514.18 322.01, 513.28 319.13, 512.20 314.95 C 511.12 310.76, 511.19 308.77, 510.93 306.18 C 510.68 303.59, 510.53 302.81, 510.91 301.97 C 511.28 301.14, 511.69 301.29, 512.80 302.03 C 513.91 302.76, 514.76 303.61, 516.45 305.64 C 518.15 307.68, 519.52 308.98, 521.28 312.21 C 523.05 315.43, 524.06 317.60, 525.27 321.79 C 526.49 325.98, 527.07 328.50, 527.35 333.16 C 527.63 337.82, 527.52 340.49, 526.67 345.10 C 525.82 349.71, 524.98 352.20, 523.11 356.20 C 521.24 360.21, 519.99 362.09, 517.32 365.12 C 514.64 368.15, 513.01 369.42, 509.73 371.35 C 506.45 373.29, 504.53 373.98, 500.92 374.81 C 497.30 375.65, 495.28 375.71, 491.66 375.52 C 488.04 375.33, 486.07 374.93, 482.83 373.86 C 479.59 372.79, 477.91 371.81, 475.46 370.15 C 473.01 368.49, 472.07 367.31, 470.57 365.56 C 469.07 363.81, 468.54 362.86, 467.98 361.41 C 467.43 359.96, 467.51 359.29, 467.81 358.33 C 468.12 357.36, 468.66 357.01, 469.52 356.58 C 470.38 356.15, 471.08 356.01, 472.13 356.19 C 473.17 356.37, 473.86 356.63, 474.75 357.50 C 475.64 358.37, 476.13 359.11, 476.58 360.52 C 477.03 361.94, 477.15 362.93, 476.99 364.58 C 476.84 366.24, 476.56 367.28, 475.81 368.81 C 475.06 370.34, 474.50 371.17, 473.23 372.21 C 471.96 373.25, 471.13 373.63, 469.45 374.02 C 467.78 374.41, 466.79 374.45, 464.87 374.15 C 462.94 373.85, 461.88 373.46, 459.81 372.53 C 457.73 371.60, 456.54 370.91, 454.49 369.50 C 452.43 368.09, 451.48 367.09, 449.53 365.47 C 447.57 363.86, 446.63 362.83, 444.72 361.43 C 442.82 360.02, 441.89 359.23, 439.99 358.45 C 438.09 357.68, 437.13 357.43, 435.22 357.55 C 433.32 357.67, 432.34 358.05, 430.46 359.06 C 428.58 360.08, 427.53 361.01, 425.82 362.62 C 424.11 364.23, 423.33 365.48, 421.93 367.12 C 420.52 368.75, 420.02 369.78, 418.79 370.79 C 417.56 371.80, 417.06 372.18, 415.77 372.17 C 414.47 372.15, 413.85 371.88, 412.32 370.72 C 410.80 369.56, 409.94 368.71, 408.15 366.38 C 406.35 364.05, 405.26 362.52, 403.36 359.07 C 401.46 355.62, 400.40 353.42, 398.66 349.13 C 396.92 344.84, 395.94 342.21, 394.66 337.62 C 393.38 333.04, 392.90 330.32, 392.26 326.20 C 391.62 322.08, 391.69 319.95, 391.44 317.03 C 391.19 314.12, 390.99 312.97, 391.00 311.63 C 391.01 310.28, 391.02 310.15, 391.49 310.31 C 391.95 310.47, 392.29 310.95, 393.31 312.42 C 394.34 313.88, 395.24 314.92, 396.62 317.64 C 398.00 320.35, 399.06 322.18, 400.22 326.00 C 401.37 329.81, 401.93 332.20, 402.38 336.73 C 402.83 341.26, 402.96 343.95, 402.48 348.64 C 402.00 353.33, 401.51 355.88, 400.00 360.18 C 398.49 364.49, 397.35 366.65, 394.92 370.16 C 392.50 373.68, 391.03 375.24, 387.87 377.76 C 384.70 380.28, 382.80 381.30, 379.09 382.78 C 375.38 384.26, 373.14 384.77, 369.32 385.15 C 365.49 385.54, 363.31 385.36, 359.95 384.70 C 356.60 384.05, 354.85 383.29, 352.54 381.87 C 350.22 380.44, 349.30 379.53, 348.37 377.59 C 347.44 375.65, 347.45 374.38, 347.89 372.15 C 348.32 369.92, 349.10 368.61, 350.56 366.43 C 352.01 364.25, 353.34 363.03, 355.17 361.24 C 356.99 359.46, 358.17 358.74, 359.67 357.49 C 361.16 356.25, 361.77 355.79, 362.64 355.02 C 363.52 354.24, 363.85 354.19, 364.05 353.63 C 364.25 353.07, 364.21 352.55, 363.63 352.21" style="stroke: black; fill: black;"/><path d="M 637.70,306.77 C 637.55 307.56, 637.61 308.12, 638.24 310.12 C 638.87 312.12, 639.47 313.35, 640.86 316.76 C 642.26 320.17, 643.35 322.50, 645.22 327.15 C 647.08 331.80, 648.23 334.75, 650.19 340.01 C 652.14 345.27, 653.22 348.35, 654.99 353.47 C 656.76 358.58, 657.60 361.24, 659.04 365.59 C 660.48 369.94, 661.07 372.21, 662.18 375.23 C 663.29 378.26, 663.88 379.70, 664.60 380.73 C 665.32 381.75, 665.77 381.62, 665.78 380.36 C 665.79 379.10, 665.53 377.54, 664.64 374.43 C 663.76 371.32, 662.87 369.15, 661.36 364.80 C 659.85 360.46, 658.90 357.85, 657.11 352.73 C 655.32 347.61, 654.26 344.52, 652.40 339.21 C 650.55 333.90, 649.48 330.93, 647.84 326.18 C 646.20 321.42, 645.51 318.92, 644.21 315.45 C 642.90 311.97, 642.35 310.65, 641.30 308.79 C 640.26 306.93, 639.72 306.56, 639.00 306.15 C 638.28 305.74, 637.85 305.97, 637.70 306.77" style="stroke: black; fill: black;"/><path d="M 624.03,315.74 C 625.14 315.57, 626.07 314.64, 628.62 313.54 C 631.17 312.45, 632.65 311.36, 636.78 310.27 C 640.92 309.19, 643.68 308.39, 649.31 308.13 C 654.94 307.87, 658.44 308.02, 664.93 308.97 C 671.42 309.93, 675.18 310.82, 681.75 312.90 C 688.33 314.99, 691.92 316.41, 697.80 319.40 C 703.67 322.39, 706.55 324.23, 711.11 327.86 C 715.67 331.49, 717.68 333.59, 720.60 337.55 C 723.52 341.51, 724.69 343.69, 725.72 347.66 C 726.76 351.63, 726.78 353.58, 725.77 357.40 C 724.75 361.23, 723.59 363.12, 720.65 366.79 C 717.70 370.45, 715.49 372.39, 711.03 375.73 C 706.57 379.06, 703.68 380.78, 698.36 383.45 C 693.04 386.12, 689.90 387.26, 684.42 389.07 C 678.94 390.88, 675.99 391.54, 670.97 392.48 C 665.95 393.43, 663.31 393.72, 659.32 393.80 C 655.33 393.89, 653.56 393.24, 651.01 392.91 C 648.45 392.57, 647.78 392.48, 646.55 392.12 C 645.31 391.76, 645.30 391.19, 644.84 391.11 C 644.37 391.03, 644.06 391.15, 644.23 391.71 C 644.39 392.27, 644.40 393.04, 645.66 393.92 C 646.91 394.79, 647.76 395.60, 650.52 396.09 C 653.27 396.58, 655.27 396.66, 659.44 396.36 C 663.62 396.06, 666.27 395.68, 671.39 394.60 C 676.52 393.52, 679.48 392.85, 685.06 390.98 C 690.63 389.11, 693.81 387.97, 699.27 385.27 C 704.72 382.56, 707.68 380.86, 712.31 377.45 C 716.94 374.04, 719.27 372.10, 722.41 368.21 C 725.55 364.32, 726.91 362.21, 728.01 357.99 C 729.10 353.76, 729.03 351.42, 727.87 347.09 C 726.71 342.76, 725.34 340.47, 722.22 336.34 C 719.09 332.21, 716.97 330.12, 712.25 326.42 C 707.52 322.72, 704.58 320.89, 698.58 317.85 C 692.59 314.81, 688.96 313.38, 682.29 311.23 C 675.62 309.07, 671.83 308.16, 665.22 307.08 C 658.61 306.00, 655.06 305.75, 649.24 305.83 C 643.42 305.91, 640.54 306.54, 636.12 307.47 C 631.70 308.40, 629.74 309.07, 627.14 310.46 C 624.53 311.85, 623.72 313.38, 623.09 314.43 C 622.47 315.49, 622.93 315.92, 624.03 315.74" style="stroke: black; fill: black;"/><path d="M 716.64,349.50 C 716.21 350.16, 715.91 350.91, 716.03 352.57 C 716.16 354.23, 716.42 355.51, 717.28 357.80 C 718.14 360.09, 718.74 361.63, 720.31 364.02 C 721.88 366.41, 723.05 367.83, 725.13 369.76 C 727.21 371.70, 728.42 372.56, 730.70 373.69 C 732.98 374.82, 734.27 375.19, 736.55 375.39 C 738.82 375.60, 740.01 375.45, 742.08 374.72 C 744.14 373.99, 745.20 373.30, 746.87 371.75 C 748.54 370.21, 749.42 368.87, 750.44 366.99 C 751.47 365.12, 751.65 363.69, 751.99 362.39 C 752.32 361.09, 751.95 360.52, 752.11 360.48 C 752.28 360.43, 752.18 360.91, 752.81 362.18 C 753.43 363.45, 753.84 364.82, 755.24 366.84 C 756.65 368.86, 757.71 370.34, 759.84 372.28 C 761.97 374.22, 763.36 375.30, 765.88 376.54 C 768.41 377.78, 769.80 378.27, 772.45 378.47 C 775.11 378.66, 776.59 378.54, 779.16 377.52 C 781.74 376.50, 783.13 375.68, 785.34 373.39 C 787.55 371.10, 788.56 369.57, 790.21 366.06 C 791.87 362.55, 792.70 360.32, 793.60 355.85 C 794.50 351.38, 794.75 348.76, 794.73 343.74 C 794.71 338.71, 794.43 335.78, 793.51 330.74 C 792.59 325.69, 791.77 323.01, 790.14 318.50 C 788.52 313.99, 787.36 311.76, 785.39 308.20 C 783.42 304.63, 782.36 302.86, 780.31 300.67 C 778.26 298.48, 777.02 297.69, 775.14 297.24 C 773.27 296.80, 772.12 297.01, 770.94 298.44 C 769.75 299.87, 769.06 301.23, 769.23 304.38 C 769.40 307.52, 770.27 309.56, 771.81 314.14 C 773.35 318.73, 774.49 321.60, 776.92 327.31 C 779.35 333.02, 780.92 336.36, 783.96 342.69 C 787.00 349.02, 788.88 352.55, 792.14 358.96 C 795.40 365.37, 797.19 368.75, 800.26 374.74 C 803.32 380.74, 804.91 383.70, 807.48 388.95 C 810.05 394.20, 811.28 396.75, 813.11 400.99 C 814.94 405.24, 815.60 407.17, 816.64 410.18 C 817.68 413.20, 817.98 414.37, 818.32 416.08 C 818.65 417.79, 818.79 418.28, 818.32 418.71 C 817.85 419.14, 817.53 418.86, 815.98 418.23 C 814.43 417.60, 813.25 416.91, 810.58 415.56 C 807.90 414.21, 805.99 413.41, 802.62 411.47 C 799.24 409.53, 797.11 408.22, 793.71 405.86 C 790.32 403.49, 788.34 402.10, 785.63 399.65 C 782.93 397.20, 781.70 395.91, 780.20 393.62 C 778.70 391.33, 778.16 390.37, 778.13 388.20 C 778.11 386.03, 778.51 385.10, 780.09 382.76 C 781.66 380.43, 782.91 379.06, 786.00 376.53 C 789.08 373.99, 791.26 372.50, 795.50 370.10 C 799.74 367.70, 802.45 366.43, 807.18 364.54 C 811.92 362.65, 814.64 361.83, 819.19 360.64 C 823.74 359.45, 826.08 359.03, 829.93 358.58 C 833.78 358.13, 835.56 358.26, 838.44 358.39 C 841.32 358.52, 842.52 358.74, 844.33 359.23 C 846.13 359.71, 846.63 360.17, 847.46 360.79 C 848.29 361.42, 848.40 361.82, 848.47 362.36 C 848.53 362.90, 848.31 363.08, 847.81 363.47 C 847.31 363.86, 846.88 363.97, 845.95 364.31 C 845.02 364.65, 844.37 364.81, 843.14 365.17 C 841.91 365.53, 841.08 365.75, 839.79 366.12 C 838.50 366.50, 837.74 366.60, 836.70 367.06 C 835.66 367.51, 835.13 367.74, 834.59 368.39 C 834.06 369.03, 833.89 369.54, 834.02 370.28 C 834.15 371.02, 834.41 371.52, 835.23 372.09 C 836.05 372.66, 836.67 372.86, 838.12 373.12 C 839.57 373.39, 840.56 373.44, 842.48 373.42 C 844.40 373.40, 845.61 373.29, 847.71 373.01 C 849.81 372.74, 850.86 372.57, 852.96 372.05 C 855.06 371.53, 856.26 371.23, 858.20 370.43 C 860.14 369.63, 861.14 369.08, 862.66 368.05 C 864.17 367.02, 864.82 366.35, 865.78 365.28 C 866.74 364.20, 867.07 363.44, 867.46 362.66 C 867.86 361.89, 867.66 361.49, 867.76 361.39 C 867.86 361.28, 867.63 361.49, 867.96 362.14 C 868.30 362.79, 868.45 363.47, 869.44 364.65 C 870.44 365.83, 871.26 366.75, 872.93 368.05 C 874.60 369.36, 875.70 370.10, 877.79 371.17 C 879.89 372.24, 881.13 372.73, 883.40 373.39 C 885.67 374.05, 886.94 374.36, 889.14 374.48 C 891.34 374.60, 892.50 374.49, 894.38 373.98 C 896.27 373.47, 897.13 372.93, 898.57 371.94 C 900.00 370.94, 900.58 370.25, 901.57 369.01 C 902.56 367.76, 902.90 366.94, 903.50 365.70 C 904.11 364.46, 904.31 363.76, 904.59 362.80 C 904.88 361.84, 904.79 361.33, 904.93 360.91 C 905.07 360.49, 904.89 360.43, 905.30 360.69 C 905.70 360.95, 905.97 361.36, 906.95 362.21 C 907.93 363.07, 908.66 363.70, 910.22 364.97 C 911.77 366.25, 912.83 367.09, 914.73 368.58 C 916.63 370.08, 917.82 370.98, 919.72 372.45 C 921.61 373.92, 922.54 374.74, 924.20 375.92 C 925.87 377.10, 926.66 377.76, 928.05 378.37 C 929.43 378.98, 930.10 379.20, 931.13 378.97 C 932.16 378.74, 932.74 378.31, 933.21 377.20 C 933.68 376.10, 933.78 375.19, 933.46 373.47 C 933.14 371.74, 932.59 370.56, 931.61 368.57 C 930.62 366.57, 929.73 365.40, 928.54 363.49 C 927.35 361.59, 926.55 360.59, 925.66 359.05 C 924.76 357.51, 924.20 356.89, 924.07 355.81 C 923.95 354.73, 923.99 354.44, 925.02 353.65 C 926.05 352.87, 926.97 352.66, 929.23 351.89 C 931.49 351.11, 933.08 350.50, 936.31 349.75 C 939.55 349.01, 941.64 348.66, 945.42 348.18 C 949.20 347.71, 951.38 347.54, 955.22 347.39 C 959.07 347.24, 961.04 347.30, 964.64 347.44 C 968.24 347.58, 970.07 347.76, 973.21 348.08 C 976.36 348.40, 977.82 348.73, 980.37 349.05 C 982.92 349.37, 983.97 349.55, 985.98 349.70 C 987.99 349.84, 989.46 350.06, 990.41 349.78 C 991.35 349.50, 991.48 348.93, 990.71 348.30 C 989.93 347.68, 988.50 347.23, 986.53 346.66 C 984.57 346.08, 983.48 345.82, 980.87 345.43 C 978.26 345.04, 976.73 344.92, 973.50 344.70 C 970.27 344.47, 968.41 344.40, 964.73 344.32 C 961.06 344.25, 959.05 344.20, 955.12 344.31 C 951.19 344.41, 948.99 344.54, 945.07 344.86 C 941.16 345.19, 939.02 345.33, 935.55 345.94 C 932.07 346.54, 930.23 346.81, 927.68 347.91 C 925.13 349.00, 924.10 349.84, 922.78 351.41 C 921.46 352.99, 921.23 353.93, 921.07 355.78 C 920.91 357.63, 921.32 358.65, 921.97 360.66 C 922.63 362.66, 923.33 363.75, 924.32 365.81 C 925.31 367.87, 925.93 369.12, 926.92 370.97 C 927.90 372.82, 928.46 373.82, 929.24 375.05 C 930.03 376.27, 930.44 376.69, 930.84 377.11 C 931.24 377.53, 931.45 377.47, 931.26 377.15 C 931.08 376.83, 930.81 376.39, 929.90 375.51 C 929.00 374.63, 928.19 374.05, 926.72 372.75 C 925.25 371.45, 924.36 370.59, 922.57 369.00 C 920.78 367.42, 919.66 366.41, 917.78 364.83 C 915.91 363.25, 914.91 362.36, 913.18 361.11 C 911.45 359.86, 910.66 359.25, 909.15 358.59 C 907.63 357.93, 906.87 357.74, 905.61 357.81 C 904.36 357.89, 903.75 358.28, 902.85 358.97 C 901.96 359.67, 901.71 360.26, 901.13 361.27 C 900.55 362.28, 900.46 362.90, 899.94 364.01 C 899.43 365.11, 899.26 365.77, 898.57 366.78 C 897.89 367.79, 897.53 368.31, 896.52 369.04 C 895.51 369.77, 894.93 370.14, 893.52 370.44 C 892.11 370.74, 891.24 370.74, 889.48 370.52 C 887.71 370.30, 886.59 370.00, 884.69 369.34 C 882.79 368.67, 881.71 368.23, 879.97 367.19 C 878.24 366.16, 877.48 365.37, 876.02 364.18 C 874.55 362.99, 873.90 362.16, 872.66 361.24 C 871.42 360.32, 870.92 359.94, 869.82 359.56 C 868.71 359.17, 868.11 359.11, 867.14 359.33 C 866.17 359.55, 865.76 359.95, 864.96 360.64 C 864.17 361.33, 864.05 361.94, 863.18 362.77 C 862.30 363.60, 861.88 364.03, 860.58 364.79 C 859.29 365.55, 858.41 365.94, 856.70 366.57 C 854.98 367.19, 853.90 367.53, 852.02 367.92 C 850.14 368.32, 849.18 368.45, 847.29 368.55 C 845.40 368.65, 844.32 368.50, 842.57 368.41 C 840.82 368.32, 839.92 368.08, 838.54 368.11 C 837.17 368.14, 836.48 368.20, 835.70 368.56 C 834.92 368.92, 834.67 369.40, 834.64 369.89 C 834.60 370.37, 834.91 370.75, 835.52 370.98 C 836.14 371.21, 836.65 371.13, 837.73 371.04 C 838.81 370.94, 839.54 370.81, 840.91 370.51 C 842.29 370.20, 843.20 370.03, 844.61 369.50 C 846.01 368.96, 846.79 368.68, 847.95 367.84 C 849.10 367.00, 849.77 366.47, 850.37 365.29 C 850.98 364.12, 851.20 363.27, 850.98 361.97 C 850.76 360.66, 850.43 359.91, 849.28 358.76 C 848.13 357.62, 847.38 356.97, 845.24 356.24 C 843.09 355.52, 841.68 355.21, 838.54 355.15 C 835.41 355.08, 833.56 355.29, 829.56 355.92 C 825.57 356.55, 823.21 357.01, 818.56 358.29 C 813.90 359.56, 811.16 360.39, 806.29 362.29 C 801.43 364.19, 798.66 365.42, 794.23 367.81 C 789.80 370.19, 787.52 371.58, 784.15 374.21 C 780.77 376.84, 779.17 378.16, 777.35 380.96 C 775.54 383.76, 775.06 385.34, 775.08 388.22 C 775.10 391.10, 775.75 392.62, 777.45 395.36 C 779.15 398.11, 780.67 399.33, 783.57 401.94 C 786.46 404.54, 788.47 405.88, 791.92 408.38 C 795.36 410.89, 797.43 412.26, 800.79 414.45 C 804.14 416.65, 805.80 417.95, 808.71 419.35 C 811.61 420.75, 813.13 421.31, 815.31 421.45 C 817.50 421.59, 818.50 421.18, 819.63 420.05 C 820.76 418.93, 821.02 417.98, 820.96 415.81 C 820.90 413.64, 820.48 412.37, 819.31 409.22 C 818.15 406.08, 817.15 404.30, 815.11 400.08 C 813.08 395.86, 811.81 393.34, 809.15 388.12 C 806.48 382.89, 804.87 379.95, 801.77 373.96 C 798.67 367.98, 796.88 364.61, 793.65 358.20 C 790.42 351.79, 788.55 348.25, 785.61 341.91 C 782.67 335.57, 781.16 332.21, 778.95 326.49 C 776.73 320.77, 775.75 317.81, 774.55 313.32 C 773.35 308.83, 773.30 306.79, 772.94 304.04 C 772.58 301.29, 772.49 300.50, 772.76 299.57 C 773.04 298.63, 773.31 298.70, 774.31 299.37 C 775.31 300.05, 776.02 300.91, 777.76 302.95 C 779.50 304.99, 780.99 306.30, 783.01 309.58 C 785.03 312.86, 786.21 315.04, 787.85 319.35 C 789.48 323.67, 790.29 326.29, 791.17 331.16 C 792.04 336.04, 792.28 338.91, 792.22 343.73 C 792.16 348.54, 791.85 351.08, 790.87 355.25 C 789.89 359.43, 788.95 361.51, 787.31 364.62 C 785.67 367.72, 784.56 368.86, 782.66 370.77 C 780.76 372.67, 779.78 373.33, 777.80 374.15 C 775.83 374.97, 774.77 375.11, 772.79 374.87 C 770.80 374.63, 769.77 374.18, 767.87 372.96 C 765.97 371.75, 765.01 370.63, 763.28 368.78 C 761.55 366.94, 760.80 365.53, 759.23 363.73 C 757.65 361.93, 756.88 360.80, 755.41 359.79 C 753.93 358.78, 753.17 358.52, 751.86 358.68 C 750.55 358.85, 749.93 359.42, 748.85 360.63 C 747.77 361.85, 747.44 363.09, 746.47 364.76 C 745.50 366.43, 745.13 367.64, 744.01 368.98 C 742.88 370.31, 742.26 370.86, 740.84 371.45 C 739.43 372.03, 738.59 372.12, 736.93 371.90 C 735.26 371.68, 734.25 371.36, 732.51 370.33 C 730.76 369.29, 729.82 368.49, 728.21 366.71 C 726.59 364.93, 725.75 363.58, 724.44 361.41 C 723.14 359.25, 722.68 357.85, 721.70 355.89 C 720.72 353.93, 720.23 352.92, 719.53 351.60 C 718.83 350.28, 718.76 349.71, 718.18 349.29 C 717.60 348.87, 717.07 348.84, 716.64 349.50" style="stroke: black; fill: black;"/></svg>